<?xml version="1.0" standalone="no"?>
<!DOCTYPE svg PUBLIC "-//W3C//DTD SVG 20010904//EN"
 "http://www.w3.org/TR/2001/REC-SVG-20010904/DTD/svg10.dtd">
<svg version="1.0" xmlns="http://www.w3.org/2000/svg"
 width="300.000000pt" height="313.000000pt" viewBox="0 0 300.000000 313.000000"
 preserveAspectRatio="xMidYMid meet">
<metadata>
Created by potrace 1.10, written by Peter Selinger 2001-2011
</metadata>
<g transform="translate(0.000000,313.000000) scale(0.100000,-0.100000)"
fill="#ffffff" stroke="none">
<path d="M1509 2369 c-75 -10 -222 -58 -289 -96 -221 -126 -374 -331 -425
-573 -19 -92 -19 -270 0 -357 72 -317 305 -559 620 -644 116 -32 309 -32 420
-1 316 89 540 317 621 632 11 43 17 108 18 190 1 157 -17 236 -90 386 -61 125
-138 219 -247 299 -34 25 -67 50 -74 55 -7 6 -15 10 -18 10 -4 0 -36 13 -71
30 -132 61 -313 87 -465 69z m231 -19 c154 -29 247 -66 357 -142 167 -115 277
-272 335 -475 31 -111 31 -305 0 -416 -44 -154 -101 -255 -206 -366 -109 -114
-219 -181 -372 -226 -306 -90 -643 10 -854 255 -72 84 -96 122 -137 216 -65
147 -88 364 -53 489 5 17 16 57 25 90 35 124 140 286 246 376 127 109 243 161
454 203 37 7 159 5 205 -4z"/>
<path d="M1504 2111 c-102 -37 -184 -107 -236 -200 -56 -100 -63 -180 -40
-470 18 -219 4 -288 -72 -360 -45 -43 -46 -61 -3 -63 56 -2 69 2 104 32 36 32
36 32 83 32 47 0 47 0 85 -34 48 -42 85 -42 130 2 45 44 103 44 179 0 69 -39
115 -39 182 0 59 33 96 74 127 139 21 44 22 59 22 327 0 214 -3 288 -13 310
-71 153 -128 219 -231 268 -58 27 -78 31 -166 33 -78 2 -111 -2 -151 -16z
m306 -37 c112 -53 186 -145 222 -273 15 -55 18 -103 18 -306 0 -231 -1 -242
-24 -291 -31 -67 -77 -118 -130 -143 -58 -29 -83 -27 -165 13 -82 39 -124 37
-189 -8 -48 -33 -59 -33 -113 3 -70 47 -128 43 -198 -10 -26 -21 -61 -25 -61
-8 0 6 11 25 24 42 60 79 67 154 46 463 -10 149 -10 179 4 233 21 80 48 133
99 188 54 59 88 82 161 110 51 19 76 23 151 20 76 -2 100 -7 155 -33z"/>
<path d="M1867 1845 c-16 -8 -37 -25 -47 -37 l-18 -22 -27 32 c-37 44 -93 45
-136 3 -27 -28 -29 -34 -29 -111 0 -79 1 -83 31 -111 43 -40 90 -40 131 1 33
33 46 37 54 16 3 -8 21 -22 40 -31 28 -13 41 -14 69 -5 49 16 65 47 65 129 0
86 -11 116 -49 136 -37 19 -49 19 -84 0z m-97 -47 c20 -34 25 -120 9 -161 -22
-54 -103 -66 -136 -20 -19 25 -17 163 2 190 28 40 98 35 125 -9z m176 34 c45
-31 61 -146 27 -203 -32 -54 -107 -49 -138 11 -30 58 -9 182 33 193 28 8 66 7
78 -1z"/>
</g>
</svg>
